mtllib ./game.unity_1.mtl
g Cylinder
v 0.4755286 -1 -0.1545086
v 0.4045088 -1 -0.2938928
v 0.2938928 -1 -0.4045087
v 0.1545086 -1 -0.4755285
v 0 -1 -0.5000002
v -0.1545086 -1 -0.4755285
v -0.2938927 -1 -0.4045087
v -0.4045086 -1 -0.2938927
v -0.4755284 -1 -0.1545085
v -0.5000001 -1 0
v -0.4755284 -1 0.1545085
v -0.4045086 -1 0.2938927
v -0.2938927 -1 0.4045086
v -0.1545085 -1 0.4755283
v -1.490116E-08 -1 0.5000001
v 0.1545085 -1 0.4755283
v 0.2938926 -1 0.4045085
v 0.4045085 -1 0.2938927
v 0.4755283 -1 0.1545085
v 0.5 -1 0
v 0.4755286 1 -0.1545086
v 0.4045088 1 -0.2938928
v 0.2938928 1 -0.4045087
v 0.1545086 1 -0.4755285
v 0 1 -0.5000002
v -0.1545086 1 -0.4755285
v -0.2938927 1 -0.4045087
v -0.4045086 1 -0.2938927
v -0.4755284 1 -0.1545085
v -0.5000001 1 0
v -0.4755284 1 0.1545085
v -0.4045086 1 0.2938927
v -0.2938927 1 0.4045086
v -0.1545085 1 0.4755283
v -1.490116E-08 1 0.5000001
v 0.1545085 1 0.4755283
v 0.2938926 1 0.4045085
v 0.4045085 1 0.2938927
v 0.4755283 1 0.1545085
v 0.5 1 0
v 0 -1 0
v 0 1 0
v -0.5000001 -1 0
v -0.5000001 1 0
v 0.5 -1 0
v 0.5 1 0
v 0.4755286 1 -0.1545086
v 0.4755286 -1 -0.1545086
v 0.4045088 -1 -0.2938928
v 0.4755286 -1 -0.1545086
v 0.2938928 -1 -0.4045087
v 0.1545086 -1 -0.4755285
v 0 -1 -0.5000002
v -0.1545086 -1 -0.4755285
v -0.2938927 -1 -0.4045087
v -0.4045086 -1 -0.2938927
v -0.4755284 -1 -0.1545085
v -0.5000001 -1 0
v -0.4755284 -1 0.1545085
v -0.4045086 -1 0.2938927
v -0.2938927 -1 0.4045086
v -0.1545085 -1 0.4755283
v -1.490116E-08 -1 0.5000001
v 0.1545085 -1 0.4755283
v 0.2938926 -1 0.4045085
v 0.4045085 -1 0.2938927
v 0.4755283 -1 0.1545085
v 0.5 -1 0
v 0.4755286 1 -0.1545086
v 0.4045088 1 -0.2938928
v 0.2938928 1 -0.4045087
v 0.1545086 1 -0.4755285
v 0 1 -0.5000002
v -0.1545086 1 -0.4755285
v -0.2938927 1 -0.4045087
v -0.4045086 1 -0.2938927
v -0.4755284 1 -0.1545085
v -0.5000001 1 0
v -0.4755284 1 0.1545085
v -0.4045086 1 0.2938927
v -0.2938927 1 0.4045086
v -0.1545085 1 0.4755283
v -1.490116E-08 1 0.5000001
v 0.1545085 1 0.4755283
v 0.2938926 1 0.4045085
v 0.4045085 1 0.2938927
v 0.4755283 1 0.1545085
v 0.5 1 0

vn 0.9510568 0 -0.309016
vn 0.809017 0 -0.5877854
vn 0.5877851 0 -0.8090171
vn 0.3090168 0 -0.9510565
vn 0 0 -1
vn -0.3090171 0 -0.9510565
vn -0.5877854 0 -0.8090168
vn -0.8090171 0 -0.5877851
vn -0.9510565 0 -0.3090169
vn -1 0 0
vn -0.9510565 0 0.309017
vn -0.8090169 0 0.5877854
vn -0.5877852 0 0.8090171
vn -0.3090169 0 0.9510565
vn 0 0 1
vn 0.3090171 0 0.9510565
vn 0.5877852 0 0.809017
vn 0.809017 0 0.5877852
vn 0.9510565 0 0.3090169
vn 1 0 0
vn 0.9510568 0 -0.309016
vn 0.809017 0 -0.5877854
vn 0.5877851 0 -0.8090171
vn 0.3090168 0 -0.9510565
vn 0 0 -1
vn -0.3090171 0 -0.9510565
vn -0.5877854 0 -0.8090168
vn -0.8090171 0 -0.5877851
vn -0.9510565 0 -0.3090169
vn -1 0 0
vn -0.9510565 0 0.309017
vn -0.8090169 0 0.5877854
vn -0.5877852 0 0.8090171
vn -0.3090169 0 0.9510565
vn 0 0 1
vn 0.3090171 0 0.9510565
vn 0.5877852 0 0.809017
vn 0.809017 0 0.5877852
vn 0.9510565 0 0.3090169
vn 1 0 0
vn 0 -1 0
vn 0 1 0
vn -1 0 0
vn -1 0 0
vn 1 0 0
vn 1 0 0
vn 0.9510568 0 -0.309016
vn 0.9510568 0 -0.309016
vn 0 -1 0
vn 0 -1 0
vn 0 -1 0
vn 0 -1 0
vn 0 -1 0
vn 0 -1 0
vn 0 -1 0
vn 0 -1 0
vn 0 -1 0
vn 0 -1 0
vn 0 -1 0
vn 0 -1 0
vn 0 -1 0
vn 0 -1 0
vn 0 -1 0
vn 0 -1 0
vn 0 -1 0
vn 0 -1 0
vn 0 -1 0
vn 0 -1 0
vn 0 1 0
vn 0 1 0
vn 0 1 0
vn 0 1 0
vn 0 1 0
vn 0 1 0
vn 0 1 0
vn 0 1 0
vn 0 1 0
vn 0 1 0
vn 0 1 0
vn 0 1 0
vn 0 1 0
vn 0 1 0
vn 0 1 0
vn 0 1 0
vn 0 1 0
vn 0 1 0
vn 0 1 0
vn 0 1 0

vt 0.1005999 0.0004537381
vt 0.2005054 0.0004537381
vt 0.300411 0.0004537381
vt 0.4003165 0.0004537381
vt 0.500222 0.0004537381
vt 0.6001273 0.0004537381
vt 0.7000327 0.0004537381
vt 0.799938 0.0004537381
vt 0.8998432 0.0004537381
vt 0.999749 0.0004537381
vt 0.1005993 0.0004537381
vt 0.200505 0.0004537381
vt 0.3004106 0.0004537381
vt 0.400316 0.0004537381
vt 0.5002215 0.0004537381
vt 0.6001268 0.0004537381
vt 0.7000322 0.0004537381
vt 0.7999375 0.0004537381
vt 0.8998428 0.0004537381
vt 0.9997481 0.0004537381
vt 0.1005996 0.9994308
vt 0.2005053 0.9994308
vt 0.300411 0.9994308
vt 0.4003165 0.9994308
vt 0.500222 0.9994308
vt 0.6001273 0.9994308
vt 0.7000328 0.9994308
vt 0.7999381 0.9994308
vt 0.8998435 0.9994308
vt 0.9997491 0.9994308
vt 0.1005996 0.9994308
vt 0.2005051 0.9994308
vt 0.3004106 0.9994308
vt 0.400316 0.9994308
vt 0.5002215 0.9994308
vt 0.6001268 0.9994308
vt 0.7000321 0.9994308
vt 0.7999371 0.9994308
vt 0.8998424 0.9994308
vt 0.9997478 0.9994308
vt 0.5002239 0.4999443
vt 0.5002245 0.4999442
vt 0.0006936856 0.0004537381
vt 0.0006940446 0.9994308
vt 0.00069427 0.0004537381
vt 0.0006939089 0.9994308
vt 0.1005996 0.9994308
vt 0.1005999 0.0004537381
vt 0.0988569 0.7915539
vt 0.02838877 0.6532523
vt 0.2086136 0.9013107
vt 0.3469154 0.971779
vt 0.500224 0.9960608
vt 0.6535327 0.971779
vt 0.7918344 0.9013106
vt 0.901591 0.7915536
vt 0.9720588 0.6532521
vt 0.9963405 0.4999437
vt 0.9720586 0.3466355
vt 0.9015904 0.2083341
vt 0.7918337 0.09857755
vt 0.653532 0.02810944
vt 0.5002234 0.003827875
vt 0.346915 0.02810972
vt 0.2086136 0.09857795
vt 0.09885708 0.2083347
vt 0.02838913 0.3466361
vt 0.004107505 0.4999442
vt 0.9720596 0.6532523
vt 0.9015915 0.7915539
vt 0.7918347 0.9013107
vt 0.653533 0.971779
vt 0.5002243 0.9960608
vt 0.3469157 0.971779
vt 0.2086142 0.9013106
vt 0.0988576 0.7915537
vt 0.0283896 0.6532522
vt 0.004108027 0.4999439
vt 0.02838971 0.3466356
vt 0.09885782 0.2083341
vt 0.2086144 0.09857755
vt 0.3469159 0.02810938
vt 0.5002242 0.003827723
vt 0.6535327 0.02810941
vt 0.7918344 0.09857755
vt 0.901591 0.2083343
vt 0.9720591 0.3466357
vt 0.9963408 0.4999439

usemtl Default-Material
usemap Default-Material
f 21/21/21 1/1/1 22/22/22
f 22/22/22 1/1/1 2/2/2
f 22/22/22 2/2/2 23/23/23
f 23/23/23 2/2/2 3/3/3
f 23/23/23 3/3/3 24/24/24
f 24/24/24 3/3/3 4/4/4
f 24/24/24 4/4/4 25/25/25
f 25/25/25 4/4/4 5/5/5
f 25/25/25 5/5/5 26/26/26
f 26/26/26 5/5/5 6/6/6
f 26/26/26 6/6/6 27/27/27
f 27/27/27 6/6/6 7/7/7
f 27/27/27 7/7/7 28/28/28
f 28/28/28 7/7/7 8/8/8
f 28/28/28 8/8/8 29/29/29
f 29/29/29 8/8/8 9/9/9
f 29/29/29 9/9/9 30/30/30
f 30/30/30 9/9/9 10/10/10
f 44/44/44 43/43/43 31/31/31
f 31/31/31 43/43/43 11/11/11
f 31/31/31 11/11/11 32/32/32
f 32/32/32 11/11/11 12/12/12
f 32/32/32 12/12/12 33/33/33
f 33/33/33 12/12/12 13/13/13
f 33/33/33 13/13/13 34/34/34
f 34/34/34 13/13/13 14/14/14
f 34/34/34 14/14/14 35/35/35
f 35/35/35 14/14/14 15/15/15
f 35/35/35 15/15/15 36/36/36
f 36/36/36 15/15/15 16/16/16
f 36/36/36 16/16/16 37/37/37
f 37/37/37 16/16/16 17/17/17
f 37/37/37 17/17/17 38/38/38
f 38/38/38 17/17/17 18/18/18
f 38/38/38 18/18/18 39/39/39
f 39/39/39 18/18/18 19/19/19
f 39/39/39 19/19/19 40/40/40
f 40/40/40 19/19/19 20/20/20
f 46/46/46 45/45/45 47/47/47
f 47/47/47 45/45/45 48/48/48
f 41/41/41 49/49/49 50/50/50
f 41/41/41 51/51/51 49/49/49
f 41/41/41 52/52/52 51/51/51
f 41/41/41 53/53/53 52/52/52
f 41/41/41 54/54/54 53/53/53
f 41/41/41 55/55/55 54/54/54
f 41/41/41 56/56/56 55/55/55
f 41/41/41 57/57/57 56/56/56
f 41/41/41 58/58/58 57/57/57
f 41/41/41 59/59/59 58/58/58
f 41/41/41 60/60/60 59/59/59
f 41/41/41 61/61/61 60/60/60
f 41/41/41 62/62/62 61/61/61
f 41/41/41 63/63/63 62/62/62
f 41/41/41 64/64/64 63/63/63
f 41/41/41 65/65/65 64/64/64
f 41/41/41 66/66/66 65/65/65
f 41/41/41 67/67/67 66/66/66
f 41/41/41 68/68/68 67/67/67
f 41/41/41 50/50/50 68/68/68
f 42/42/42 69/69/69 70/70/70
f 42/42/42 70/70/70 71/71/71
f 42/42/42 71/71/71 72/72/72
f 42/42/42 72/72/72 73/73/73
f 42/42/42 73/73/73 74/74/74
f 42/42/42 74/74/74 75/75/75
f 42/42/42 75/75/75 76/76/76
f 42/42/42 76/76/76 77/77/77
f 42/42/42 77/77/77 78/78/78
f 42/42/42 78/78/78 79/79/79
f 42/42/42 79/79/79 80/80/80
f 42/42/42 80/80/80 81/81/81
f 42/42/42 81/81/81 82/82/82
f 42/42/42 82/82/82 83/83/83
f 42/42/42 83/83/83 84/84/84
f 42/42/42 84/84/84 85/85/85
f 42/42/42 85/85/85 86/86/86
f 42/42/42 86/86/86 87/87/87
f 42/42/42 87/87/87 88/88/88
f 42/42/42 88/88/88 69/69/69
