# OBJ File Generated by UnrealEd

g Cone_2

v 0.0000 -0.5000 -0.5000
v -0.1294 -0.5000 -0.4830
v -0.1035 -0.3000 -0.3864
v 0.0000 -0.3000 -0.4000
v -0.0776 -0.1000 -0.2898
v 0.1294 -0.5000 -0.4830
v 0.0000 -0.1000 -0.3000
v -0.0518 0.1000 -0.1932
v 0.1035 -0.3000 -0.3864
v 0.2500 -0.5000 -0.4330
v 0.0000 0.1000 -0.2000
v -0.0259 0.3000 -0.0966
v 0.0776 -0.1000 -0.2898
v 0.2000 -0.3000 -0.3464
v 0.3536 -0.5000 -0.3536
v 0.0000 0.3000 -0.1000
v -0.0003 0.5000 -0.0010
v -0.0000 0.5000 -0.0010
v 0.2828 -0.3000 -0.2828
v 0.4330 -0.5000 -0.2500
v 0.0259 0.3000 -0.0966
v 0.0003 0.5000 -0.0010
v 0.0518 0.1000 -0.1932
v 0.0500 0.3000 -0.0866
v 0.0005 0.5000 -0.0009
v 0.1000 0.1000 -0.1732
v 0.1500 -0.1000 -0.2598
v 0.2121 -0.1000 -0.2121
v 0.1414 0.1000 -0.1414
v 0.0707 0.3000 -0.0707
v 0.0007 0.5000 -0.0007
v 0.3464 -0.3000 -0.2000
v 0.4830 -0.5000 -0.1294
v 0.2598 -0.1000 -0.1500
v 0.3864 -0.3000 -0.1035
v 0.5000 -0.5000 0.0000
v 0.1732 0.1000 -0.1000
v 0.2898 -0.1000 -0.0776
v 0.4000 -0.3000 0.0000
v 0.4830 -0.5000 0.1294
v 0.0866 0.3000 -0.0500
v 0.0009 0.5000 -0.0005
v 0.3864 -0.3000 0.1035
v 0.4330 -0.5000 0.2500
v 0.0966 0.3000 -0.0259
v 0.0010 0.5000 -0.0003
v 0.1932 0.1000 -0.0518
v 0.1000 0.3000 0.0000
v 0.0010 0.5000 -0.0000
v 0.2000 0.1000 0.0000
v 0.3000 -0.1000 0.0000
v 0.2898 -0.1000 0.0776
v 0.1932 0.1000 0.0518
v 0.0966 0.3000 0.0259
v 0.0010 0.5000 0.0003
v 0.3464 -0.3000 0.2000
v 0.3536 -0.5000 0.3536
v 0.2598 -0.1000 0.1500
v 0.2828 -0.3000 0.2828
v 0.2500 -0.5000 0.4330
v 0.1732 0.1000 0.1000
v 0.2121 -0.1000 0.2121
v 0.2000 -0.3000 0.3464
v 0.1294 -0.5000 0.4830
v 0.0866 0.3000 0.0500
v 0.0009 0.5000 0.0005
v 0.1035 -0.3000 0.3864
v -0.0000 -0.5000 0.5000
v 0.0707 0.3000 0.0707
v 0.0007 0.5000 0.0007
v 0.1414 0.1000 0.1414
v 0.0500 0.3000 0.0866
v 0.0005 0.5000 0.0009
v 0.1000 0.1000 0.1732
v 0.1500 -0.1000 0.2598
v 0.0776 -0.1000 0.2898
v 0.0518 0.1000 0.1932
v 0.0259 0.3000 0.0966
v 0.0003 0.5000 0.0010
v -0.0000 -0.3000 0.4000
v -0.1294 -0.5000 0.4830
v -0.0000 -0.1000 0.3000
v -0.1035 -0.3000 0.3864
v -0.2500 -0.5000 0.4330
v -0.0000 0.1000 0.2000
v -0.0776 -0.1000 0.2898
v -0.2000 -0.3000 0.3464
v -0.3536 -0.5000 0.3536
v -0.0000 0.3000 0.1000
v -0.0000 0.5000 0.0010
v -0.2828 -0.3000 0.2828
v -0.4330 -0.5000 0.2500
v -0.0259 0.3000 0.0966
v -0.0003 0.5000 0.0010
v -0.0518 0.1000 0.1932
v -0.0500 0.3000 0.0866
v -0.0005 0.5000 0.0009
v -0.1000 0.1000 0.1732
v -0.1500 -0.1000 0.2598
v -0.2121 -0.1000 0.2121
v -0.1414 0.1000 0.1414
v -0.0707 0.3000 0.0707
v -0.0007 0.5000 0.0007
v -0.3464 -0.3000 0.2000
v -0.4830 -0.5000 0.1294
v -0.2598 -0.1000 0.1500
v -0.3864 -0.3000 0.1035
v -0.5000 -0.5000 -0.0000
v -0.1732 0.1000 0.1000
v -0.2898 -0.1000 0.0776
v -0.4000 -0.3000 -0.0000
v -0.4830 -0.5000 -0.1294
v -0.0866 0.3000 0.0500
v -0.0009 0.5000 0.0005
v -0.3864 -0.3000 -0.1035
v -0.4330 -0.5000 -0.2500
v -0.0966 0.3000 0.0259
v -0.0010 0.5000 0.0003
v -0.1932 0.1000 0.0518
v -0.1000 0.3000 -0.0000
v -0.0010 0.5000 -0.0000
v -0.2000 0.1000 -0.0000
v -0.3000 -0.1000 -0.0000
v -0.2898 -0.1000 -0.0776
v -0.1932 0.1000 -0.0518
v -0.0966 0.3000 -0.0259
v -0.0010 0.5000 -0.0003
v -0.3464 -0.3000 -0.2000
v -0.3536 -0.5000 -0.3536
v -0.2598 -0.1000 -0.1500
v -0.2828 -0.3000 -0.2828
v -0.2500 -0.5000 -0.4330
v -0.1732 0.1000 -0.1000
v -0.2121 -0.1000 -0.2121
v -0.2000 -0.3000 -0.3464
v -0.1294 -0.5000 -0.4830
v -0.1035 -0.3000 -0.3864
v -0.1500 -0.1000 -0.2598
v -0.0776 -0.1000 -0.2898
v -0.1414 0.1000 -0.1414
v -0.1000 0.1000 -0.1732
v -0.0518 0.1000 -0.1932
v -0.0866 0.3000 -0.0500
v -0.0009 0.5000 -0.0005
v -0.0707 0.3000 -0.0707
v -0.0007 0.5000 -0.0007
v -0.0500 0.3000 -0.0866
v -0.0005 0.5000 -0.0009
v -0.0259 0.3000 -0.0966
v -0.0003 0.5000 -0.0010
v 0.0010 0.5000 0.0003
v 0.0010 0.5000 -0.0000
v 0.0010 0.5000 -0.0003
v 0.0007 0.5000 -0.0007
v 0.0009 0.5000 -0.0005
v 0.0009 0.5000 0.0005
v 0.0007 0.5000 0.0007
v 0.0005 0.5000 0.0009
v 0.0003 0.5000 0.0010
v -0.0000 0.5000 0.0010
v -0.0003 0.5000 0.0010
v -0.0005 0.5000 0.0009
v -0.0007 0.5000 0.0007
v -0.0009 0.5000 0.0005
v -0.0010 0.5000 0.0003
v -0.0010 0.5000 -0.0000
v -0.0010 0.5000 -0.0003
v -0.0009 0.5000 -0.0005
v -0.0007 0.5000 -0.0007
v -0.0005 0.5000 -0.0009
v -0.0003 0.5000 -0.0010
v -0.0000 0.5000 -0.0010
v 0.0003 0.5000 -0.0010
v 0.0005 0.5000 -0.0009
v 0.4330 -0.5000 0.2500
v 0.3536 -0.5000 0.3536
v 0.2500 -0.5000 0.4330
v 0.5000 -0.5000 0.0000
v 0.4830 -0.5000 0.1294
v 0.1294 -0.5000 0.4830
v -0.0000 -0.5000 0.5000
v -0.2500 -0.5000 0.4330
v -0.1294 -0.5000 0.4830
v 0.4330 -0.5000 -0.2500
v 0.4830 -0.5000 -0.1294
v -0.3536 -0.5000 0.3536
v -0.4330 -0.5000 0.2500
v 0.2500 -0.5000 -0.4330
v 0.3536 -0.5000 -0.3536
v -0.2500 -0.5000 -0.4330
v -0.5000 -0.5000 -0.0000
v -0.4830 -0.5000 0.1294
v 0.0000 -0.5000 -0.5000
v 0.1294 -0.5000 -0.4830
v -0.1294 -0.5000 -0.4830
v -0.4330 -0.5000 -0.2500
v -0.4830 -0.5000 -0.1294
v -0.3536 -0.5000 -0.3536

vt 0.9561 0.0000
vt 1.0000 0.0000
vt 1.0000 0.2207
vt 0.9561 0.2207
vt 1.0000 0.4414
vt 0.9121 0.0000
vt 0.9561 0.4414
vt 1.0000 0.6609
vt 0.9121 0.2207
vt 0.8691 0.0000
vt 0.9561 0.6609
vt 1.0000 0.8785
vt 0.9121 0.4414
vt 0.8691 0.2207
vt 0.8267 0.0000
vt 0.9561 0.8785
vt 1.0000 1.0000
vt 0.9561 1.0000
vt 0.8267 0.2207
vt 0.7847 0.0000
vt 0.9121 0.8785
vt 0.9121 1.0000
vt 0.9121 0.6609
vt 0.8691 0.8785
vt 0.8691 1.0000
vt 0.8691 0.6609
vt 0.8691 0.4414
vt 0.8267 0.4414
vt 0.8267 0.6609
vt 0.8267 0.8785
vt 0.8267 1.0000
vt 0.7847 0.2207
vt 0.7437 0.0000
vt 0.7847 0.4414
vt 0.7437 0.2207
vt 0.7026 0.0000
vt 0.7847 0.6609
vt 0.7437 0.4414
vt 0.7026 0.2207
vt 0.6626 0.0000
vt 0.7847 0.8785
vt 0.7847 1.0000
vt 0.6626 0.2207
vt 0.6226 0.0000
vt 0.7437 0.8785
vt 0.7437 1.0000
vt 0.7437 0.6609
vt 0.7026 0.8785
vt 0.7026 1.0000
vt 0.7026 0.6609
vt 0.7026 0.4414
vt 0.6626 0.4414
vt 0.6626 0.6609
vt 0.6626 0.8785
vt 0.6626 1.0000
vt 0.6226 0.2207
vt 0.5825 0.0000
vt 0.6226 0.4414
vt 0.5825 0.2207
vt 0.5430 0.0000
vt 0.6226 0.6609
vt 0.5825 0.4414
vt 0.5430 0.2207
vt 0.5029 0.0000
vt 0.6226 0.8785
vt 0.6226 1.0000
vt 0.5029 0.2207
vt 0.4634 0.0000
vt 0.5825 0.8785
vt 0.5825 1.0000
vt 0.5825 0.6609
vt 0.5430 0.8785
vt 0.5430 1.0000
vt 0.5430 0.6609
vt 0.5430 0.4414
vt 0.5029 0.4414
vt 0.5029 0.6609
vt 0.5029 0.8785
vt 0.5029 1.0000
vt 0.4634 0.2207
vt 0.4236 0.0000
vt 0.4634 0.4414
vt 0.4236 0.2207
vt 0.3833 0.0000
vt 0.4634 0.6609
vt 0.4236 0.4414
vt 0.3833 0.2207
vt 0.3430 0.0000
vt 0.4634 0.8785
vt 0.4634 1.0000
vt 0.3430 0.2207
vt 0.3022 0.0000
vt 0.4236 0.8785
vt 0.4236 1.0000
vt 0.4236 0.6609
vt 0.3833 0.8785
vt 0.3833 1.0000
vt 0.3833 0.6609
vt 0.3833 0.4414
vt 0.3430 0.4414
vt 0.3430 0.6609
vt 0.3430 0.8785
vt 0.3430 1.0000
vt 0.3022 0.2207
vt 0.2607 0.0000
vt 0.3022 0.4414
vt 0.2607 0.2207
vt 0.2189 0.0000
vt 0.3022 0.6609
vt 0.2607 0.4414
vt 0.2189 0.2207
vt 0.1761 0.0000
vt 0.3022 0.8785
vt 0.3022 1.0000
vt 0.1761 0.2207
vt 0.1326 0.0000
vt 0.2607 0.8785
vt 0.2607 1.0000
vt 0.2607 0.6609
vt 0.2189 0.8785
vt 0.2189 1.0000
vt 0.2189 0.6609
vt 0.2189 0.4414
vt 0.1761 0.4414
vt 0.1761 0.6609
vt 0.1761 0.8785
vt 0.1761 1.0000
vt 0.1326 0.2207
vt 0.0882 0.0000
vt 0.1326 0.4414
vt 0.0882 0.2207
vt 0.0438 0.0000
vt 0.1326 0.6609
vt 0.0882 0.4414
vt 0.0438 0.2207
vt 0.0000 0.0000
vt 0.0000 0.2207
vt 0.0438 0.4414
vt 0.0000 0.4414
vt 0.0882 0.6609
vt 0.0438 0.6609
vt 0.0000 0.6609
vt 0.1326 0.8785
vt 0.1326 1.0000
vt 0.0882 0.8785
vt 0.0882 1.0000
vt 0.0438 0.8785
vt 0.0438 1.0000
vt 0.0000 0.8785
vt 0.0000 1.0000
vt 0.4583 0.6692
vt 0.4617 0.6750
vt 0.4634 0.6816
vt 0.4617 0.6953
vt 0.4634 0.6885
vt 0.4534 0.6643
vt 0.4475 0.6609
vt 0.4409 0.6592
vt 0.4341 0.6592
vt 0.4272 0.6609
vt 0.4214 0.6643
vt 0.4165 0.6692
vt 0.4131 0.6750
vt 0.4114 0.6816
vt 0.4114 0.6885
vt 0.4131 0.6953
vt 0.4165 0.7012
vt 0.4214 0.7061
vt 0.4272 0.7095
vt 0.4341 0.7112
vt 0.4409 0.7112
vt 0.4475 0.7095
vt 0.4534 0.7061
vt 0.4583 0.7012
vt 0.7500 0.9330
vt 0.8535 0.8536
vt 0.9326 0.7500
vt 0.5000 1.0000
vt 0.6294 0.9830
vt 0.9829 0.6296
vt 1.0000 0.5000
vt 0.9326 0.2500
vt 0.9829 0.3706
vt 0.2500 0.9330
vt 0.3704 0.9830
vt 0.8535 0.1465
vt 0.7495 0.0674
vt 0.0670 0.7500
vt 0.1464 0.8536
vt 0.0670 0.2505
vt 0.4998 0.0000
vt 0.6294 0.0171
vt 0.0000 0.5000
vt 0.0170 0.6296
vt 0.0170 0.3706
vt 0.2499 0.0674
vt 0.3704 0.0171
vt 0.1464 0.1465

vn -0.392 43.529 -89.804
vn -23.922 43.529 -86.667
vn -23.922 43.529 -86.667
vn -0.392 43.529 -89.804
vn -23.922 43.529 -86.667
vn 22.353 43.529 -86.667
vn -0.392 43.529 -89.804
vn -23.922 43.529 -86.667
vn 22.353 43.529 -86.667
vn 43.529 43.529 -78.039
vn -0.392 43.529 -89.804
vn -23.922 43.529 -86.667
vn 22.353 43.529 -86.667
vn 43.529 43.529 -78.039
vn 62.353 43.529 -63.922
vn -0.392 43.529 -89.804
vn -23.922 43.529 -86.667
vn -0.392 43.529 -89.804
vn 62.353 43.529 -63.922
vn 77.255 44.314 -45.882
vn 22.353 43.529 -86.667
vn 22.353 43.529 -86.667
vn 22.353 43.529 -86.667
vn 43.529 43.529 -78.039
vn 43.529 43.529 -78.039
vn 43.529 43.529 -78.039
vn 43.529 43.529 -78.039
vn 62.353 43.529 -63.922
vn 62.353 43.529 -63.922
vn 62.353 43.529 -63.922
vn 62.353 43.529 -63.922
vn 77.255 44.314 -45.882
vn 85.882 44.314 -24.706
vn 77.255 44.314 -45.882
vn 85.882 44.314 -24.706
vn 89.020 44.314 -1.176
vn 77.255 44.314 -45.882
vn 85.882 44.314 -24.706
vn 89.020 44.314 -1.176
vn 85.882 44.314 23.137
vn 77.255 44.314 -45.882
vn 77.255 44.314 -45.882
vn 85.882 44.314 23.137
vn 77.255 44.314 44.314
vn 85.882 44.314 -24.706
vn 85.882 44.314 -24.706
vn 85.882 44.314 -24.706
vn 89.020 44.314 -1.176
vn 89.020 44.314 -1.176
vn 89.020 44.314 -1.176
vn 89.020 44.314 -1.176
vn 85.882 44.314 23.137
vn 85.882 44.314 23.137
vn 85.882 44.314 23.137
vn 85.882 44.314 23.137
vn 77.255 44.314 44.314
vn 63.137 44.314 63.137
vn 77.255 44.314 44.314
vn 63.137 44.314 63.137
vn 44.314 44.314 77.255
vn 77.255 44.314 44.314
vn 63.137 44.314 63.137
vn 44.314 44.314 77.255
vn 23.137 44.314 85.882
vn 77.255 44.314 44.314
vn 77.255 44.314 44.314
vn 23.137 44.314 85.882
vn -1.176 44.314 89.020
vn 63.137 44.314 63.137
vn 63.137 44.314 63.137
vn 63.137 44.314 63.137
vn 44.314 44.314 77.255
vn 44.314 44.314 77.255
vn 44.314 44.314 77.255
vn 44.314 44.314 77.255
vn 23.137 44.314 85.882
vn 23.137 44.314 85.882
vn 23.137 44.314 85.882
vn 23.137 44.314 85.882
vn -1.176 44.314 89.020
vn -24.706 44.314 85.882
vn -1.176 44.314 89.020
vn -24.706 44.314 85.882
vn -45.882 44.314 77.255
vn -1.176 44.314 89.020
vn -24.706 44.314 85.882
vn -45.882 44.314 77.255
vn -63.922 43.529 62.353
vn -1.176 44.314 89.020
vn -1.176 44.314 89.020
vn -63.922 43.529 62.353
vn -78.039 43.529 43.529
vn -24.706 44.314 85.882
vn -24.706 44.314 85.882
vn -24.706 44.314 85.882
vn -45.882 44.314 77.255
vn -45.882 44.314 77.255
vn -45.882 44.314 77.255
vn -45.882 44.314 77.255
vn -63.922 43.529 62.353
vn -63.922 43.529 62.353
vn -63.922 43.529 62.353
vn -63.922 43.529 62.353
vn -78.039 43.529 43.529
vn -86.667 43.529 22.353
vn -78.039 43.529 43.529
vn -86.667 43.529 22.353
vn -89.804 43.529 -0.392
vn -78.039 43.529 43.529
vn -86.667 43.529 22.353
vn -89.804 43.529 -0.392
vn -86.667 43.529 -23.922
vn -78.039 43.529 43.529
vn -78.039 43.529 43.529
vn -86.667 43.529 -23.922
vn -78.039 43.529 -45.098
vn -86.667 43.529 22.353
vn -86.667 43.529 22.353
vn -86.667 43.529 22.353
vn -89.804 43.529 -0.392
vn -89.804 43.529 -0.392
vn -89.804 43.529 -0.392
vn -89.804 43.529 -0.392
vn -86.667 43.529 -23.922
vn -86.667 43.529 -23.922
vn -86.667 43.529 -23.922
vn -86.667 43.529 -23.922
vn -78.039 43.529 -45.098
vn -63.922 43.529 -63.922
vn -78.039 43.529 -45.098
vn -63.922 43.529 -63.922
vn -45.098 43.529 -78.039
vn -78.039 43.529 -45.098
vn -63.922 43.529 -63.922
vn -45.098 43.529 -78.039
vn -23.922 43.529 -86.667
vn -23.922 43.529 -86.667
vn -45.098 43.529 -78.039
vn -23.922 43.529 -86.667
vn -63.922 43.529 -63.922
vn -45.098 43.529 -78.039
vn -23.922 43.529 -86.667
vn -78.039 43.529 -45.098
vn -78.039 43.529 -45.098
vn -63.922 43.529 -63.922
vn -63.922 43.529 -63.922
vn -45.098 43.529 -78.039
vn -45.098 43.529 -78.039
vn -23.922 43.529 -86.667
vn -23.922 43.529 -86.667
vn -0.392 99.216 -0.392
vn -0.392 99.216 -0.392
vn -0.392 99.216 -0.392
vn -0.392 99.216 -0.392
vn -0.392 99.216 -0.392
vn -0.392 99.216 -0.392
vn -0.392 99.216 -0.392
vn -0.392 99.216 -0.392
vn -0.392 99.216 -0.392
vn -0.392 99.216 -0.392
vn -0.392 99.216 -0.392
vn -0.392 99.216 -0.392
vn -0.392 99.216 -0.392
vn -0.392 99.216 -0.392
vn -0.392 99.216 -0.392
vn -0.392 99.216 -0.392
vn -0.392 99.216 -0.392
vn -0.392 99.216 -0.392
vn -0.392 99.216 -0.392
vn -0.392 99.216 -0.392
vn -0.392 99.216 -0.392
vn -0.392 99.216 -0.392
vn -0.392 99.216 -0.392
vn -0.392 99.216 -0.392
vn -0.392 -100.000 -0.392
vn -0.392 -100.000 -0.392
vn -0.392 -100.000 -0.392
vn -0.392 -100.000 -0.392
vn -0.392 -100.000 -0.392
vn -0.392 -100.000 -0.392
vn -0.392 -100.000 -0.392
vn -0.392 -100.000 -0.392
vn -0.392 -100.000 -0.392
vn -0.392 -100.000 -0.392
vn -0.392 -100.000 -0.392
vn -0.392 -100.000 -0.392
vn -0.392 -100.000 -0.392
vn -0.392 -100.000 -0.392
vn -0.392 -100.000 -0.392
vn -0.392 -100.000 -0.392
vn -0.392 -100.000 -0.392
vn -0.392 -100.000 -0.392
vn -0.392 -100.000 -0.392
vn -0.392 -100.000 -0.392
vn -0.392 -100.000 -0.392
vn -0.392 -100.000 -0.392
vn -0.392 -100.000 -0.392
vn -0.392 -100.000 -0.392

usemtl /Engine/BasicShapes/BasicShapeMaterial_BasicShapeMaterial
f 90/90/90 94/94/94 93/93/93 
f 3/3/3 4/4/4 1/1/1 
f 4/4/4 3/3/3 5/5/5 
f 6/6/6 1/1/1 4/4/4 
f 5/5/5 7/7/7 4/4/4 
f 7/7/7 5/5/5 8/8/8 
f 4/4/4 9/9/9 6/6/6 
f 9/9/9 4/4/4 7/7/7 
f 10/10/10 6/6/6 9/9/9 
f 8/8/8 11/11/11 7/7/7 
f 11/11/11 8/8/8 12/12/12 
f 7/7/7 13/13/13 9/9/9 
f 13/13/13 7/7/7 11/11/11 
f 9/9/9 14/14/14 10/10/10 
f 14/14/14 9/9/9 13/13/13 
f 15/15/15 10/10/10 14/14/14 
f 12/12/12 16/16/16 11/11/11 
f 16/16/16 12/12/12 17/17/17 
f 17/17/17 18/18/18 16/16/16 
f 14/14/14 19/19/19 15/15/15 
f 20/20/20 15/15/15 19/19/19 
f 21/21/21 16/16/16 18/18/18 
f 18/18/18 22/22/22 21/21/21 
f 23/23/23 11/11/11 16/16/16 
f 16/16/16 21/21/21 23/23/23 
f 11/11/11 23/23/23 13/13/13 
f 24/24/24 21/21/21 22/22/22 
f 22/22/22 25/25/25 24/24/24 
f 26/26/26 23/23/23 21/21/21 
f 21/21/21 24/24/24 26/26/26 
f 27/27/27 13/13/13 23/23/23 
f 13/13/13 27/27/27 14/14/14 
f 23/23/23 26/26/26 27/27/27 
f 19/19/19 14/14/14 27/27/27 
f 28/28/28 27/27/27 26/26/26 
f 27/27/27 28/28/28 19/19/19 
f 29/29/29 26/26/26 24/24/24 
f 26/26/26 29/29/29 28/28/28 
f 30/30/30 24/24/24 25/25/25 
f 24/24/24 30/30/30 29/29/29 
f 25/25/25 31/31/31 30/30/30 
f 32/32/32 19/19/19 28/28/28 
f 19/19/19 32/32/32 20/20/20 
f 33/33/33 20/20/20 32/32/32 
f 28/28/28 34/34/34 32/32/32 
f 34/34/34 28/28/28 29/29/29 
f 32/32/32 35/35/35 33/33/33 
f 35/35/35 32/32/32 34/34/34 
f 36/36/36 33/33/33 35/35/35 
f 29/29/29 37/37/37 34/34/34 
f 37/37/37 29/29/29 30/30/30 
f 34/34/34 38/38/38 35/35/35 
f 38/38/38 34/34/34 37/37/37 
f 35/35/35 39/39/39 36/36/36 
f 39/39/39 35/35/35 38/38/38 
f 40/40/40 36/36/36 39/39/39 
f 30/30/30 41/41/41 37/37/37 
f 41/41/41 30/30/30 31/31/31 
f 31/31/31 42/42/42 41/41/41 
f 39/39/39 43/43/43 40/40/40 
f 44/44/44 40/40/40 43/43/43 
f 45/45/45 41/41/41 42/42/42 
f 42/42/42 46/46/46 45/45/45 
f 47/47/47 37/37/37 41/41/41 
f 41/41/41 45/45/45 47/47/47 
f 37/37/37 47/47/47 38/38/38 
f 48/48/48 45/45/45 46/46/46 
f 46/46/46 49/49/49 48/48/48 
f 50/50/50 47/47/47 45/45/45 
f 45/45/45 48/48/48 50/50/50 
f 51/51/51 38/38/38 47/47/47 
f 38/38/38 51/51/51 39/39/39 
f 47/47/47 50/50/50 51/51/51 
f 43/43/43 39/39/39 51/51/51 
f 52/52/52 51/51/51 50/50/50 
f 51/51/51 52/52/52 43/43/43 
f 53/53/53 50/50/50 48/48/48 
f 50/50/50 53/53/53 52/52/52 
f 54/54/54 48/48/48 49/49/49 
f 48/48/48 54/54/54 53/53/53 
f 49/49/49 55/55/55 54/54/54 
f 56/56/56 43/43/43 52/52/52 
f 43/43/43 56/56/56 44/44/44 
f 57/57/57 44/44/44 56/56/56 
f 52/52/52 58/58/58 56/56/56 
f 58/58/58 52/52/52 53/53/53 
f 56/56/56 59/59/59 57/57/57 
f 59/59/59 56/56/56 58/58/58 
f 60/60/60 57/57/57 59/59/59 
f 53/53/53 61/61/61 58/58/58 
f 61/61/61 53/53/53 54/54/54 
f 58/58/58 62/62/62 59/59/59 
f 62/62/62 58/58/58 61/61/61 
f 59/59/59 63/63/63 60/60/60 
f 63/63/63 59/59/59 62/62/62 
f 64/64/64 60/60/60 63/63/63 
f 54/54/54 65/65/65 61/61/61 
f 65/65/65 54/54/54 55/55/55 
f 55/55/55 66/66/66 65/65/65 
f 63/63/63 67/67/67 64/64/64 
f 68/68/68 64/64/64 67/67/67 
f 69/69/69 65/65/65 66/66/66 
f 66/66/66 70/70/70 69/69/69 
f 71/71/71 61/61/61 65/65/65 
f 65/65/65 69/69/69 71/71/71 
f 61/61/61 71/71/71 62/62/62 
f 72/72/72 69/69/69 70/70/70 
f 70/70/70 73/73/73 72/72/72 
f 74/74/74 71/71/71 69/69/69 
f 69/69/69 72/72/72 74/74/74 
f 75/75/75 62/62/62 71/71/71 
f 62/62/62 75/75/75 63/63/63 
f 71/71/71 74/74/74 75/75/75 
f 67/67/67 63/63/63 75/75/75 
f 76/76/76 75/75/75 74/74/74 
f 75/75/75 76/76/76 67/67/67 
f 77/77/77 74/74/74 72/72/72 
f 74/74/74 77/77/77 76/76/76 
f 78/78/78 72/72/72 73/73/73 
f 72/72/72 78/78/78 77/77/77 
f 73/73/73 79/79/79 78/78/78 
f 80/80/80 67/67/67 76/76/76 
f 67/67/67 80/80/80 68/68/68 
f 81/81/81 68/68/68 80/80/80 
f 76/76/76 82/82/82 80/80/80 
f 82/82/82 76/76/76 77/77/77 
f 80/80/80 83/83/83 81/81/81 
f 83/83/83 80/80/80 82/82/82 
f 84/84/84 81/81/81 83/83/83 
f 77/77/77 85/85/85 82/82/82 
f 85/85/85 77/77/77 78/78/78 
f 82/82/82 86/86/86 83/83/83 
f 86/86/86 82/82/82 85/85/85 
f 83/83/83 87/87/87 84/84/84 
f 87/87/87 83/83/83 86/86/86 
f 88/88/88 84/84/84 87/87/87 
f 78/78/78 89/89/89 85/85/85 
f 89/89/89 78/78/78 79/79/79 
f 79/79/79 90/90/90 89/89/89 
f 87/87/87 91/91/91 88/88/88 
f 92/92/92 88/88/88 91/91/91 
f 93/93/93 89/89/89 90/90/90 
f 1/1/1 2/2/2 3/3/3 
f 95/95/95 85/85/85 89/89/89 
f 89/89/89 93/93/93 95/95/95 
f 85/85/85 95/95/95 86/86/86 
f 96/96/96 93/93/93 94/94/94 
f 94/94/94 97/97/97 96/96/96 
f 98/98/98 95/95/95 93/93/93 
f 93/93/93 96/96/96 98/98/98 
f 99/99/99 86/86/86 95/95/95 
f 86/86/86 99/99/99 87/87/87 
f 95/95/95 98/98/98 99/99/99 
f 91/91/91 87/87/87 99/99/99 
f 100/100/100 99/99/99 98/98/98 
f 99/99/99 100/100/100 91/91/91 
f 101/101/101 98/98/98 96/96/96 
f 98/98/98 101/101/101 100/100/100 
f 102/102/102 96/96/96 97/97/97 
f 96/96/96 102/102/102 101/101/101 
f 97/97/97 103/103/103 102/102/102 
f 104/104/104 91/91/91 100/100/100 
f 91/91/91 104/104/104 92/92/92 
f 105/105/105 92/92/92 104/104/104 
f 100/100/100 106/106/106 104/104/104 
f 106/106/106 100/100/100 101/101/101 
f 104/104/104 107/107/107 105/105/105 
f 107/107/107 104/104/104 106/106/106 
f 108/108/108 105/105/105 107/107/107 
f 101/101/101 109/109/109 106/106/106 
f 109/109/109 101/101/101 102/102/102 
f 106/106/106 110/110/110 107/107/107 
f 110/110/110 106/106/106 109/109/109 
f 107/107/107 111/111/111 108/108/108 
f 111/111/111 107/107/107 110/110/110 
f 112/112/112 108/108/108 111/111/111 
f 102/102/102 113/113/113 109/109/109 
f 113/113/113 102/102/102 103/103/103 
f 103/103/103 114/114/114 113/113/113 
f 111/111/111 115/115/115 112/112/112 
f 116/116/116 112/112/112 115/115/115 
f 117/117/117 113/113/113 114/114/114 
f 114/114/114 118/118/118 117/117/117 
f 119/119/119 109/109/109 113/113/113 
f 113/113/113 117/117/117 119/119/119 
f 109/109/109 119/119/119 110/110/110 
f 120/120/120 117/117/117 118/118/118 
f 118/118/118 121/121/121 120/120/120 
f 122/122/122 119/119/119 117/117/117 
f 117/117/117 120/120/120 122/122/122 
f 123/123/123 110/110/110 119/119/119 
f 110/110/110 123/123/123 111/111/111 
f 119/119/119 122/122/122 123/123/123 
f 115/115/115 111/111/111 123/123/123 
f 124/124/124 123/123/123 122/122/122 
f 123/123/123 124/124/124 115/115/115 
f 125/125/125 122/122/122 120/120/120 
f 122/122/122 125/125/125 124/124/124 
f 126/126/126 120/120/120 121/121/121 
f 120/120/120 126/126/126 125/125/125 
f 121/121/121 127/127/127 126/126/126 
f 128/128/128 115/115/115 124/124/124 
f 115/115/115 128/128/128 116/116/116 
f 129/129/129 116/116/116 128/128/128 
f 124/124/124 130/130/130 128/128/128 
f 130/130/130 124/124/124 125/125/125 
f 128/128/128 131/131/131 129/129/129 
f 131/131/131 128/128/128 130/130/130 
f 132/132/132 129/129/129 131/131/131 
f 125/125/125 133/133/133 130/130/130 
f 133/133/133 125/125/125 126/126/126 
f 130/130/130 134/134/134 131/131/131 
f 134/134/134 130/130/130 133/133/133 
f 131/131/131 135/135/135 132/132/132 
f 135/135/135 131/131/131 134/134/134 
f 136/136/136 132/132/132 135/135/135 
f 135/135/135 137/137/137 136/136/136 
f 137/137/137 135/135/135 138/138/138 
f 134/134/134 138/138/138 135/135/135 
f 138/138/138 139/139/139 137/137/137 
f 138/138/138 134/134/134 140/140/140 
f 133/133/133 140/140/140 134/134/134 
f 139/139/139 138/138/138 141/141/141 
f 140/140/140 141/141/141 138/138/138 
f 141/141/141 142/142/142 139/139/139 
f 140/140/140 133/133/133 143/143/143 
f 126/126/126 143/143/143 133/133/133 
f 143/143/143 126/126/126 127/127/127 
f 127/127/127 144/144/144 143/143/143 
f 143/143/143 145/145/145 140/140/140 
f 145/145/145 143/143/143 144/144/144 
f 141/141/141 140/140/140 145/145/145 
f 144/144/144 146/146/146 145/145/145 
f 145/145/145 147/147/147 141/141/141 
f 147/147/147 145/145/145 146/146/146 
f 142/142/142 141/141/141 147/147/147 
f 146/146/146 148/148/148 147/147/147 
f 147/147/147 149/149/149 142/142/142 
f 149/149/149 147/147/147 148/148/148 
f 148/148/148 150/150/150 149/149/149 
f 151/151/151 152/152/152 153/153/153 
f 154/154/154 151/151/151 153/153/153 
f 154/154/154 153/153/153 155/155/155 
f 154/154/154 156/156/156 151/151/151 
f 154/154/154 157/157/157 156/156/156 
f 154/154/154 158/158/158 157/157/157 
f 154/154/154 159/159/159 158/158/158 
f 154/154/154 160/160/160 159/159/159 
f 154/154/154 161/161/161 160/160/160 
f 154/154/154 162/162/162 161/161/161 
f 154/154/154 163/163/163 162/162/162 
f 154/154/154 164/164/164 163/163/163 
f 154/154/154 165/165/165 164/164/164 
f 154/154/154 166/166/166 165/165/165 
f 154/154/154 167/167/167 166/166/166 
f 154/154/154 168/168/168 167/167/167 
f 154/154/154 169/169/169 168/168/168 
f 154/154/154 170/170/170 169/169/169 
f 154/154/154 171/171/171 170/170/170 
f 154/154/154 172/172/172 171/171/171 
f 154/154/154 173/173/173 172/172/172 
f 154/154/154 174/174/174 173/173/173 
f 175/175/175 176/176/176 177/177/177 
f 178/178/178 179/179/179 175/175/175 
f 178/178/178 175/175/175 177/177/177 
f 177/177/177 180/180/180 181/181/181 
f 177/177/177 181/181/181 182/182/182 
f 181/181/181 183/183/183 182/182/182 
f 178/178/178 177/177/177 182/182/182 
f 184/184/184 185/185/185 178/178/178 
f 182/182/182 186/186/186 187/187/187 
f 184/184/184 178/178/178 188/188/188 
f 184/184/184 188/188/188 189/189/189 
f 178/178/178 182/182/182 190/190/190 
f 178/178/178 190/190/190 188/188/188 
f 182/182/182 187/187/187 191/191/191 
f 187/187/187 192/192/192 191/191/191 
f 182/182/182 191/191/191 190/190/190 
f 193/193/193 194/194/194 188/188/188 
f 190/190/190 193/193/193 188/188/188 
f 190/190/190 195/195/195 193/193/193 
f 191/191/191 196/196/196 190/190/190 
f 191/191/191 197/197/197 196/196/196 
f 196/196/196 198/198/198 190/190/190 

# dElaernU yb detareneG eliF JBO
